# xmcd
#
# Track frame offsets: 
#        150
#        16046
#        32021
#        43907
#        59182
#        69218
#        82746
#        94240
#        112055
#        126093
#
# Disc length: 1864 seconds
#
# Revision: 0
# Processed by: cddbd v1.5.2PL0 Copyright (c) Steve Scherf et al.
# Submitted via: ExactAudioCopy v0.99pb4
#
DISCID=8007460a
DTITLE=Jody Nix - New Road Under My Wheels
DYEAR=1900
DGENRE=Country
TTITLE0=New Road Under My Wheels
TTITLE1=Maiden's Prayer
TTITLE2=Hang Your Head In Shame
TTITLE3=She Won't Let Me Forget Her
TTITLE4=Bottle Baby Boogie
TTITLE5=Carring On The Show
TTITLE6=That's What It's Like To Be Lonesome
TTITLE7=Fiddle Tune Medley
TTITLE8=Your Memory's Still Living Here
TTITLE9=Corn Flower Waltz
EXTD=
EXTT0=
EXTT1=
EXTT2=
EXTT3=
EXTT4=
EXTT5=
EXTT6=
EXTT7=
EXTT8=
EXTT9=
PLAYORDER=
